<svg xmlns="http://www.w3.org/2000/svg" width="1024" height="1024" viewBox="0 0 1024 1024">
  <rect width="1024" height="1024" fill="#FCFBF8"/>
  <path d="M 777.22,512.00 C 775.82,555.77 756.60,601.31 735.24,640.89 C 713.89,680.46 686.30,727.48 649.09,749.45 C 611.88,771.41 556.16,775.34 512.00,772.68 C 467.84,770.01 423.76,754.04 384.14,733.46 C 344.52,712.89 303.54,686.16 274.29,649.24 C 245.03,612.33 211.82,559.61 208.59,512.00 C 205.37,464.39 228.94,406.15 254.94,363.59 C 280.94,321.03 321.73,275.99 364.58,256.65 C 407.42,237.32 463.92,245.73 512.00,247.57 C 560.08,249.42 614.42,245.95 653.03,267.73 C 691.64,289.51 722.96,337.54 743.66,378.25 C 764.36,418.96 778.62,468.23 777.22,512.00 Z M 769.61,512.00 C 771.35,553.11 753.38,603.00 730.85,638.35 C 708.32,673.70 670.93,709.02 634.46,724.10 C 597.98,739.18 550.96,732.06 512.00,728.83 C 473.04,725.61 435.92,720.57 400.71,704.75 C 365.51,688.94 323.74,666.08 300.77,633.95 C 277.81,601.83 257.32,549.42 262.92,512.00 C 268.52,474.58 310.66,440.26 334.39,409.45 C 358.11,378.65 375.68,352.40 405.28,327.15 C 434.88,301.91 476.65,257.59 512.00,257.98 C 547.35,258.37 582.63,307.21 617.37,329.50 C 652.10,351.78 695.03,361.26 720.41,391.68 C 745.78,422.09 767.87,470.89 769.61,512.00 Z" fill="#181311" fill-rule="evenodd" />
  <path d="M 512.00,330.00 C 530.00,330.00 566.00,473.67 566.00,512.00 C 566.00,550.33 530.00,560.00 512.00,560.00 C 494.00,560.00 458.00,550.33 458.00,512.00 C 458.00,473.67 494.00,330.00 512.00,330.00 Z" fill="#9F3327" />
  <path d="M 512.00,694.00 C 530.00,694.00 566.00,550.33 566.00,512.00 C 566.00,473.67 530.00,464.00 512.00,464.00 C 494.00,464.00 458.00,473.67 458.00,512.00 C 458.00,550.33 494.00,694.00 512.00,694.00 Z" fill="#181311" />
</svg>
